<?xml version="1.0" encoding="UTF-8"?>
<svg xmlns="http://www.w3.org/2000/svg" xmlns:xlink="http://www.w3.org/1999/xlink" width="500px" height="500px"
    viewBox="0 0 500 500" version="1.1">
    <g id="surface1">
        <path style=" stroke:none;fill-rule:evenodd;fill:rgb(0%,84.705882%,100%);fill-opacity:1;"
            d="M 294.652344 249.585938 C 294.652344 274.246094 274.660156 294.234375 250 294.234375 C 225.34375 294.234375 205.351562 274.246094 205.351562 249.585938 C 205.351562 224.929688 225.34375 204.9375 250 204.9375 C 274.660156 204.9375 294.652344 224.929688 294.652344 249.585938 Z M 294.652344 249.585938 " />
        <path
            style="fill:none;stroke-width:24;stroke-linecap:butt;stroke-linejoin:miter;stroke:rgb(0%,84.705882%,100%);stroke-opacity:1;stroke-miterlimit:4;"
            d="M 269.531355 135.630091 C 336.885639 135.630091 399.455864 145.294768 446.638097 161.534235 C 503.480618 181.104986 538.430583 210.766152 538.430583 237.627107 C 538.430583 265.616046 501.391433 297.129389 440.348596 317.354108 C 394.197788 332.645541 333.466573 340.629213 269.531355 340.629213 C 203.97658 340.629213 141.897928 333.137114 95.229213 317.187324 C 36.183392 297.006496 0.618961 265.084972 0.618961 237.627107 C 0.618961 210.985604 33.988869 181.552669 90.036973 162.01264 C 137.390379 145.501053 201.505548 135.630091 269.522577 135.630091 Z M 269.531355 135.630091 "
            transform="matrix(0.89,0,0,0.89,10.121,38.097813)" />
        <path
            style="fill:none;stroke-width:24;stroke-linecap:butt;stroke-linejoin:miter;stroke:rgb(0%,84.705882%,100%);stroke-opacity:1;stroke-miterlimit:4;"
            d="M 180.736587 186.920471 C 214.387395 128.572507 254.016081 79.20014 291.656531 46.440309 C 337.004143 6.974017 380.161622 -8.47981 403.427949 4.9375 C 427.677423 18.920997 436.473069 66.752809 423.499052 129.731215 C 413.698315 177.352353 390.260815 233.944698 358.321735 289.334445 C 325.570681 346.119909 288.070681 396.155021 250.94375 428.60323 C 203.963413 469.671524 158.545576 484.53283 134.756952 470.817065 C 111.679354 457.518258 102.852985 413.89993 113.926545 355.587079 C 123.2796 306.31566 146.756601 245.83901 180.72342 186.920471 Z M 180.736587 186.920471 "
            transform="matrix(0.89,0,0,0.89,10.121,38.097813)" />
        <path
            style="fill:none;stroke-width:24;stroke-linecap:butt;stroke-linejoin:miter;stroke:rgb(0%,84.705882%,100%);stroke-opacity:1;stroke-miterlimit:4;"
            d="M 180.819979 289.483673 C 147.077001 231.201545 124.100351 172.195225 114.510288 123.22665 C 102.9671 64.229108 111.126334 19.118504 134.375105 5.661692 C 158.598244 -8.361306 204.428652 7.904494 252.515028 50.601124 C 288.869487 82.882549 326.202704 131.438553 358.238343 186.775632 C 391.081566 243.508427 415.69533 300.982971 425.272226 349.354635 C 437.390379 410.568645 427.580864 457.338308 403.818574 471.097963 C 380.762921 484.445049 338.571032 470.312324 293.578933 431.596559 C 255.565414 398.885007 214.896524 348.345154 180.819979 289.479284 Z M 180.819979 289.483673 "
            transform="matrix(0.89,0,0,0.89,10.121,38.097813)" />
    </g>
</svg>